<?xml version="1.0" standalone="no"?>
<!DOCTYPE svg PUBLIC "-//W3C//DTD SVG 20010904//EN"
 "http://www.w3.org/TR/2001/REC-SVG-20010904/DTD/svg10.dtd">
<svg version="1.0" xmlns="http://www.w3.org/2000/svg"
 width="700.000000pt" height="700.000000pt" viewBox="0 0 700.000000 700.000000"
 preserveAspectRatio="xMidYMid meet">
<metadata>
Created by potrace 1.11, written by Peter Selinger 2001-2013
</metadata>
<g transform="translate(0.000000,700.000000) scale(0.100000,-0.100000)"
fill="#000000" stroke="none">
<path d="M1 6128 l0 -873 218 435 219 435 218 -438 219 -437 219 437 218 438
219 -435 218 -435 0 873 1 872 -435 0 c-239 0 -435 -2 -435 -5 0 -3 97 -199
215 -435 l215 -430 -435 0 -435 0 215 430 c118 236 215 432 215 435 0 3 -196
5 -435 5 l-435 0 1 -872z"/>
<path d="M1745 5250 l-1750 -1750 1753 -1753 1752 -1752 1752 1752 1753 1753
-1750 1750 c-962 962 -1752 1750 -1755 1750 -3 0 -793 -788 -1755 -1750z
m2192 -437 l438 437 437 -437 438 -438 -437 -437 -438 -438 438 -438 437 -437
-437 -438 -438 -437 -437 437 -438 438 -437 -438 -438 -437 -437 437 -438 438
437 437 438 438 -438 438 -437 437 437 438 438 437 437 -437 438 -438 437 438z"/>
<path d="M3060 3935 l-435 -435 438 -438 437 -437 437 437 438 438 -435 435
c-239 239 -437 435 -440 435 -3 0 -201 -196 -440 -435z"/>
<path d="M5690 6781 l435 -219 -438 -218 -437 -219 437 -219 438 -218 -435
-219 -435 -218 873 0 872 -1 0 435 c0 239 -2 435 -5 435 -3 0 -199 -97 -435
-215 l-430 -215 0 435 0 435 430 -215 c236 -118 432 -215 435 -215 3 0 5 196
5 435 l0 435 -872 -1 -873 0 435 -218z"/>
<path d="M0 1315 c0 -239 2 -435 5 -435 3 0 199 97 435 215 l430 215 0 -435 0
-435 -430 215 c-236 118 -432 215 -435 215 -3 0 -5 -196 -5 -435 l0 -435 873
1 872 0 -435 218 -435 219 438 218 437 219 -437 219 -438 218 435 219 435 218
-872 0 -873 1 0 -435z"/>
<path d="M5906 1313 l-218 -438 -219 435 -218 435 0 -872 -1 -873 435 0 c239
0 435 2 435 5 0 3 -97 199 -215 435 l-215 430 435 0 435 0 -215 -430 c-118
-236 -215 -432 -215 -435 0 -3 196 -5 435 -5 l435 0 -1 873 0 872 -218 -435
-219 -435 -218 438 -219 437 -219 -437z"/>
</g>
</svg>
